<?xml version="1.0" standalone="no"?>
<!DOCTYPE svg PUBLIC "-//W3C//DTD SVG 20010904//EN"
 "http://www.w3.org/TR/2001/REC-SVG-20010904/DTD/svg10.dtd">
<svg version="1.0" xmlns="http://www.w3.org/2000/svg"
 width="250.000000pt" height="250.000000pt" viewBox="0 0 250.000000 250.000000"
 preserveAspectRatio="xMidYMid meet">
<metadata>
Created by potrace 1.11, written by Peter Selinger 2001-2013
</metadata>
<g transform="translate(0.000000,250.000000) scale(0.100000,-0.100000)"
fill="#000000" stroke="none">
<path d="M1618 2435 c-2 -2 -50 -6 -108 -9 -58 -4 -132 -9 -165 -11 -105 -8
-198 -14 -280 -20 -44 -3 -107 -7 -140 -10 -33 -3 -91 -7 -130 -10 -38 -2
-108 -7 -155 -11 -47 -3 -97 -7 -112 -8 -16 -2 -59 -3 -98 -4 l-70 -2 0 -1118
0 -1118 143 -29 142 -29 748 -1 747 -2 -2 1116 -3 1116 -215 0 -215 0 0 77 1
77 -43 -1 c-23 0 -43 -2 -45 -3z"/>
</g>
</svg>
